<svg width="769" height="1024" viewBox="0 0 769 1024" fill="none" xmlns="http://www.w3.org/2000/svg">
<circle cx="641.087" cy="128.411" r="128.411" fill="#E97171"/>
<path fill-rule="evenodd" clip-rule="evenodd" d="M768.775 256.823L512.359 513.239V256.823H768.775Z" fill="#AF352E"/>
<path fill-rule="evenodd" clip-rule="evenodd" d="M513.239 766.212L256.82 509.793L513.239 509.793V766.212Z" fill="#FFCB8E"/>
<path fill-rule="evenodd" clip-rule="evenodd" d="M512.359 767.578L768.781 1024H512.359V767.578Z" fill="#AF352E"/>
<path fill-rule="evenodd" clip-rule="evenodd" d="M768.777 1024L512.36 767.581H768.777V1024Z" fill="#FFCB8E"/>
<path d="M0 256.822C0 114.983 114.983 0 256.822 0V256.822H0Z" fill="#AF352E"/>
<path d="M513.645 512.361C371.806 512.361 256.823 397.378 256.823 255.539H513.645V512.361Z" fill="#E97171"/>
<path fill-rule="evenodd" clip-rule="evenodd" d="M767.896 512.359C767.896 370.521 652.912 255.538 511.074 255.538L511.074 526.934H767.896V512.359ZM693.418 516.585C693.418 415.879 611.78 334.241 511.074 334.241L511.074 526.933H693.418V516.585Z" fill="#FFCB8E"/>
<path fill-rule="evenodd" clip-rule="evenodd" d="M512.677 1023.44C654.516 1023.44 769.499 908.453 769.499 766.614H512.677L695.019 766.614C695.019 867.319 613.382 948.957 512.677 948.958V1023.44Z" fill="#E97171"/>
<path fill-rule="evenodd" clip-rule="evenodd" d="M256.822 0C114.983 0 0 114.983 0 256.822H74.4791C74.4795 156.117 156.117 74.4795 256.822 74.4791V0Z" fill="#E97171"/>
<path fill-rule="evenodd" clip-rule="evenodd" d="M513.645 511.074H256.823V767.896H513.645V511.074ZM385.233 716.532C427.785 716.532 462.28 682.037 462.28 639.485C462.28 596.933 427.785 562.438 385.233 562.438C342.682 562.438 308.187 596.933 308.187 639.485C308.187 682.037 342.682 716.532 385.233 716.532Z" fill="#E97171"/>
<path fill-rule="evenodd" clip-rule="evenodd" d="M513.645 0H256.823V256.822H513.645V0ZM385.233 205.457C427.785 205.457 462.28 170.962 462.28 128.411C462.28 85.859 427.785 51.3641 385.233 51.3641C342.682 51.3641 308.187 85.859 308.187 128.411C308.187 170.962 342.682 205.457 385.233 205.457Z" fill="#FFCB8E"/>
<path d="M512.676 768.217C512.676 626.379 627.659 511.396 769.498 511.396V768.217H512.676Z" fill="#AF352E"/>
</svg>
